<?xml version="1.0" encoding="iso-8859-1"?>
<!-- Uploaded to: SVG Repo, www.svgrepo.com, Generator: SVG Repo Mixer Tools -->
<!DOCTYPE svg PUBLIC "-//W3C//DTD SVG 1.1//EN" "http://www.w3.org/Graphics/SVG/1.1/DTD/svg11.dtd">
<svg fill="#000000" height="800px" width="800px" version="1.1" id="Capa_1" xmlns="http://www.w3.org/2000/svg" xmlns:xlink="http://www.w3.org/1999/xlink" 
	 viewBox="0 0 395 395" xml:space="preserve">
<g>
	<path d="M313.002,0H82C36.785,0,0,36.784,0,81.998v230.993C0,358.211,36.785,395,82,395h231.002
		C358.216,395,395,358.211,395,312.991V81.998C395,36.784,358.216,0,313.002,0z M380,312.991C380,349.94,349.944,380,313.002,380H82
		c-36.944,0-67-30.06-67-67.009V81.998C15,45.056,45.056,15,82,15h231.002C349.944,15,380,45.056,380,81.998V312.991z"/>
	<path d="M333.006,111.278c-0.602-4.667-4.58-8.275-9.41-8.275c-4.813,0-8.779,3.584-9.402,8.227H87.662
		c-7.868,0-14.246,6.378-14.246,14.246v44.159c0,5.545,3.175,10.339,7.801,12.693l-31.775,95.683
		c-1.442,4.343-0.711,9.114,1.968,12.825c2.678,3.711,6.976,5.91,11.552,5.91h58.819c6.138,0,11.585-3.932,13.52-9.756
		l15.894-47.857c0.355,0.054,0.71,0.109,1.074,0.137c0.232,0.018,1.424,0.101,3.355,0.101c8.67,0,32.248-1.67,50.939-18.385
		c10.582-9.463,17.744-21.897,21.429-37.104h25.42c7.868,0,14.246-6.378,14.246-14.246v-6.692h64.382
		c7.868,0,14.246-6.378,14.246-14.246v-23.221C346.285,117.934,340.421,111.777,333.006,111.278z M187.753,199.583
		c-8.847,8.017-20.167,10.382-27.096,11.05l8.884-26.752h28.662C195.766,190.232,192.277,195.482,187.753,199.583z"/>
</g>
</svg>